<?xml version="1.0" encoding="iso-8859-1"?>
<!-- Generator: Adobe Illustrator 28.2.0, SVG Export Plug-In . SVG Version: 6.00 Build 0)  -->
<svg version="1.1" xmlns="http://www.w3.org/2000/svg" xmlns:xlink="http://www.w3.org/1999/xlink" x="0px" y="0px"
	 viewBox="0 0 64 64" style="enable-background:new 0 0 64 64;" xml:space="preserve">
<g id="Layer_1">
</g>
<g id="Layer_2">
	<linearGradient id="SVGID_1_" gradientUnits="userSpaceOnUse" x1="32.0049" y1="5.999" x2="32.0049" y2="57.5685">
		<stop  offset="0" style="stop-color:#8AB4FF"/>
		<stop  offset="1" style="stop-color:#E492FF"/>
	</linearGradient>
	<path style="fill:url(#SVGID_1_);" d="M24.8,20.238l-9.463,11.068C14.502,29.036,14,26.62,14,24c0-4.374,1.572-8.387,4.176-11.509
		L24.8,20.238z M24.321,45.208c3.214,4.034,6.188,7.908,7.684,12.361c1.577-4.693,4.791-8.739,8.201-13.011
		C45.025,38.52,50.01,32.277,50.01,24c0-2.492-0.51-4.866-1.429-7.026L24.321,45.208z M26.116,18.7l10.36-12.116
		C35.045,6.216,33.554,6,32.01,6c-0.002,0-0.003-0.001-0.005-0.001S32.002,6,32,6c-4.828,0-9.209,1.921-12.445,5.026L26.116,18.7z
		 M32,17c3.866,0,7,3.134,7,7c0,0.403-0.042,0.795-0.107,1.179l8.708-10.134c-2.035-3.529-5.227-6.299-9.06-7.799L29.935,17.31
		C30.588,17.109,31.281,17,32,17z M32,31c-3.866,0-7-3.134-7-7c0-0.345,0.033-0.682,0.082-1.013l-8.874,10.379
		c1.733,3.686,4.27,7.012,6.845,10.249l11.146-12.972C33.506,30.872,32.769,31,32,31z"/>
	
		<linearGradient id="SVGID_00000066492980816855380640000016196326736190482846_" gradientUnits="userSpaceOnUse" x1="32.0049" y1="4" x2="32.0049" y2="60">
		<stop  offset="0" style="stop-color:#1A6DFF"/>
		<stop  offset="1" style="stop-color:#C822FF"/>
	</linearGradient>
	<path style="fill:url(#SVGID_00000066492980816855380640000016196326736190482846_);" d="M32.01,4
		c-0.002,0-0.003,0.001-0.005,0.001S32.002,4,32,4c-11.028,0-20,8.972-20,20c0,8.977,5.206,15.499,10.241,21.805
		c3.378,4.232,6.569,8.229,7.986,12.721C30.458,59.26,31.096,60,32,60c0.002,0,0.003-0.001,0.005-0.001S32.008,60,32.01,60
		c0.904,0,1.542-0.74,1.772-1.473c1.417-4.493,4.608-8.49,7.986-12.722C46.804,39.499,52.01,32.977,52.01,24
		C52.01,12.972,43.038,4,32.01,4z M40.206,44.557c-3.41,4.272-6.624,8.318-8.201,13.011c-1.577-4.693-4.791-8.739-8.201-13.011
		C18.984,38.52,14,32.277,14,24c0-9.925,8.075-18,18-18c0.002,0,0.003-0.001,0.005-0.001S32.008,6,32.01,6c9.925,0,18,8.075,18,18
		C50.01,32.277,45.025,38.52,40.206,44.557z M32,32c-4.411,0-8-3.589-8-8s3.589-8,8-8s8,3.589,8,8S36.411,32,32,32z M32,18
		c-3.309,0-6,2.691-6,6s2.691,6,6,6s6-2.691,6-6S35.309,18,32,18z"/>
</g>
</svg>